<svg xmlns="http://www.w3.org/2000/svg" viewBox="0 0 24 24" fill="currentColor">
  <path d="M12 0.297C5.373 0.297 0 5.67 0 12.297c0 5.292 3.438 9.777 8.207 11.387.6.113.793-.26.793-.577v-2.17c-3.338.724-4.033-1.416-4.033-1.416-.546-1.387-1.333-1.756-1.333-1.756-1.089-.745.084-.729.084-.729 1.205.085 1.84 1.236 1.84 1.236 1.07 1.835 2.809 1.305 3.495.997.108-.776.42-1.305.763-1.605-2.665-.304-5.466-1.332-5.466-5.931 0-1.31.468-2.381 1.236-3.221-.124-.303-.535-1.523.117-3.176 0 0 1.008-.322 3.3 1.23.957-.266 1.984-.398 3.003-.403 1.018.005 2.045.137 3.003.403 2.29-1.552 3.296-1.23 3.296-1.23.653 1.653.242 2.873.119 3.176.77.84 1.235 1.911 1.235 3.221 0 4.61-2.804 5.625-5.475 5.921.431.372.815 1.102.815 2.222v3.293c0 .32.192.694.8.576C20.565 22.07 24 17.586 24 12.297 24 5.67 18.627 0.297 12 0.297z"/>
</svg>
