<?xml version="1.0" encoding="utf-8"?><svg xmlns="http://www.w3.org/2000/svg" xmlns:xlink="http://www.w3.org/1999/xlink"><symbol fill="none" stroke="currentColor" stroke-width="2" stroke-linecap="round" stroke-linejoin="round" viewBox="0 0 24 24" id="center-h-v" xmlns="http://www.w3.org/2000/svg"><path d="M4 9V6a2 2 0 0 1 2-2h3M15 4h3a2 2 0 0 1 2 2v3M20 15v3a2 2 0 0 1-2 2h-3M9 20H6a2 2 0 0 1-2-2v-3M10 10 6.5 6.5M14 10l3.5-3.5M10 14l-3.5 3.5M14 14l3.5 3.5"/></symbol><symbol viewBox="0 0 24 24" fill="none" id="clock" xmlns="http://www.w3.org/2000/svg"><path d="M12 22.75C6.07 22.75 1.25 17.93 1.25 12S6.07 1.25 12 1.25 22.75 6.07 22.75 12 17.93 22.75 12 22.75Zm0-20C6.9 2.75 2.75 6.9 2.75 12S6.9 21.25 12 21.25s9.25-4.15 9.25-9.25S17.1 2.75 12 2.75Z" fill="currentColor"/><path d="M15.71 15.93a.67.67 0 0 1-.38-.11l-3.1-1.85c-.77-.46-1.34-1.47-1.34-2.36v-4.1c0-.41.34-.75.75-.75s.75.34.75.75v4.1c0 .36.3.89.61 1.07l3.1 1.85c.36.21.47.67.26 1.03a.77.77 0 0 1-.65.37Z" fill="currentColor"/></symbol><symbol viewBox="0 0 24 24" fill="none" id="close-circle" xmlns="http://www.w3.org/2000/svg"><path d="M12 22.75C6.07 22.75 1.25 17.93 1.25 12S6.07 1.25 12 1.25 22.75 6.07 22.75 12 17.93 22.75 12 22.75Zm0-20C6.9 2.75 2.75 6.9 2.75 12S6.9 21.25 12 21.25s9.25-4.15 9.25-9.25S17.1 2.75 12 2.75Z" fill="currentColor"/><path d="M9.17 15.58c-.19 0-.38-.07-.53-.22a.754.754 0 0 1 0-1.06l5.66-5.66c.29-.29.77-.29 1.06 0 .29.29.29.77 0 1.06L9.7 15.36c-.14.15-.34.22-.53.22Z" fill="currentColor"/><path d="M14.83 15.58c-.19 0-.38-.07-.53-.22L8.64 9.7a.754.754 0 0 1 0-1.06c.29-.29.77-.29 1.06 0l5.66 5.66c.29.29.29.77 0 1.06-.15.15-.34.22-.53.22Z" fill="currentColor"/></symbol><symbol viewBox="0 0 24 24" fill="none" id="collapse" xmlns="http://www.w3.org/2000/svg"><path d="M10.248 20.5c-.41 0-.75-.34-.75-.75V14.5h-5.25c-.41 0-.75-.34-.75-.75s.34-.75.75-.75h6c.41 0 .75.34.75.75v6c0 .41-.34.75-.75.75Z" fill="currentColor"/><path d="M2.748 22c-.19 0-.38-.07-.53-.22a.754.754 0 0 1 0-1.06l7.5-7.5c.29-.29.77-.29 1.06 0 .29.29.29.77 0 1.06l-7.5 7.5c-.15.15-.34.22-.53.22ZM18.75 11.998h-6c-.41 0-.75-.34-.75-.75v-6c0-.41.34-.75.75-.75s.75.34.75.75v5.25h5.25c.41 0 .75.34.75.75s-.34.75-.75.75Z" fill="currentColor"/><path d="M12.75 11.998c-.19 0-.38-.07-.53-.22a.754.754 0 0 1 0-1.06l7.5-7.5c.29-.29.77-.29 1.06 0 .29.29.29.77 0 1.06l-7.5 7.5c-.15.15-.34.22-.53.22Z" fill="currentColor"/></symbol><symbol viewBox="0 0 24 24" fill="none" stroke="currentColor" stroke-width="2" stroke-linecap="round" stroke-linejoin="round" id="customization" xmlns="http://www.w3.org/2000/svg"><path d="M4 21v-7M4 10V3M12 21v-9M12 8V3M20 21v-5M20 12V3"/><circle cx="4" cy="12" r="2"/><circle cx="12" cy="10" r="2"/><circle cx="20" cy="14" r="2"/></symbol><symbol viewBox="0 0 24 24" fill="none" id="department" xmlns="http://www.w3.org/2000/svg"><path d="M6.7 18.75H4.15c-1.84 0-2.9-1.06-2.9-2.9V4.15c0-1.84 1.06-2.9 2.9-2.9h4.3c1.84 0 2.9 1.06 2.9 2.9V6c0 .41-.34.75-.75.75s-.75-.34-.75-.75V4.15c0-1.02-.38-1.4-1.4-1.4h-4.3c-1.02 0-1.4.38-1.4 1.4v11.7c0 1.02.38 1.4 1.4 1.4H6.7c.41 0 .75.34.75.75s-.34.75-.75.75Z" fill="currentColor"/><path d="M14.96 22.75H9.12c-2.01 0-3.17-1.16-3.17-3.17V8.42c0-2.01 1.16-3.17 3.17-3.17h5.84c2.01 0 3.16 1.16 3.16 3.17v11.16c0 2.01-1.15 3.17-3.16 3.17Zm-5.84-16c-1.2 0-1.67.47-1.67 1.67v11.16c0 1.2.47 1.67 1.67 1.67h5.84c1.19 0 1.66-.47 1.66-1.67V8.42c0-1.2-.47-1.67-1.66-1.67H9.12Z" fill="currentColor"/><path d="M19.85 18.75h-2.48c-.41 0-.75-.34-.75-.75s.34-.75.75-.75h2.48c1.02 0 1.4-.38 1.4-1.4V4.15c0-1.02-.38-1.4-1.4-1.4h-4.3c-1.02 0-1.4.38-1.4 1.4V6c0 .41-.34.75-.75.75s-.75-.34-.75-.75V4.15c0-1.84 1.06-2.9 2.9-2.9h4.3c1.84 0 2.9 1.06 2.9 2.9v11.7c0 1.84-1.06 2.9-2.9 2.9Z" fill="currentColor"/><path d="M14 11.75h-4c-.41 0-.75-.34-.75-.75s.34-.75.75-.75h4c.41 0 .75.34.75.75s-.34.75-.75.75ZM14 14.75h-4c-.41 0-.75-.34-.75-.75s.34-.75.75-.75h4c.41 0 .75.34.75.75s-.34.75-.75.75ZM12 22.75c-.41 0-.75-.34-.75-.75v-3c0-.41.34-.75.75-.75s.75.34.75.75v3c0 .41-.34.75-.75.75Z" fill="currentColor"/></symbol><symbol viewBox="0 0 24 24" id="drag-drop" xmlns="http://www.w3.org/2000/svg"><path fill="none" d="M0 0h24v24H0z"/><path fill="currentColor" d="m16 13 6.964 4.062-2.973.85 2.125 3.681-1.732 1-2.125-3.68-2.223 2.15L16 13zm-2-7h2v2h5a1 1 0 0 1 1 1v4h-2v-3H10v10h4v2H9a1 1 0 0 1-1-1v-5H6v-2h2V9a1 1 0 0 1 1-1h5V6zM4 14v2H2v-2h2zm0-4v2H2v-2h2zm0-4v2H2V6h2zm0-4v2H2V2h2zm4 0v2H6V2h2zm4 0v2h-2V2h2zm4 0v2h-2V2h2z"/></symbol><symbol viewBox="0 0 24 24" fill="none" id="expand" xmlns="http://www.w3.org/2000/svg"><path d="M21 9.75c-.41 0-.75-.34-.75-.75V3.75H15c-.41 0-.75-.34-.75-.75s.34-.75.75-.75h6c.41 0 .75.34.75.75v6c0 .41-.34.75-.75.75ZM9 21.75H3c-.41 0-.75-.34-.75-.75v-6c0-.41.34-.75.75-.75s.75.34.75.75v5.25H9c.41 0 .75.34.75.75s-.34.75-.75.75Z" fill="currentColor"/><path d="M13.5 11.25c-.19 0-.38-.07-.53-.22a.754.754 0 0 1 0-1.06l7.5-7.5c.29-.29.77-.29 1.06 0 .29.29.29.77 0 1.06l-7.5 7.5c-.15.15-.34.22-.53.22ZM3 21.75c-.19 0-.38-.07-.53-.22a.754.754 0 0 1 0-1.06l7.5-7.5c.29-.29.77-.29 1.06 0 .29.29.29.77 0 1.06l-7.5 7.5c-.15.15-.34.22-.53.22Z" fill="currentColor"/></symbol><symbol viewBox="0 0 24 24" fill="none" id="eye" xmlns="http://www.w3.org/2000/svg"><path d="M12 16.33c-2.39 0-4.33-1.94-4.33-4.33S9.61 7.67 12 7.67s4.33 1.94 4.33 4.33-1.94 4.33-4.33 4.33Zm0-7.16c-1.56 0-2.83 1.27-2.83 2.83s1.27 2.83 2.83 2.83 2.83-1.27 2.83-2.83S13.56 9.17 12 9.17Z" fill="currentColor"/><path d="M12 21.02c-3.76 0-7.31-2.2-9.75-6.02-1.06-1.65-1.06-4.34 0-6 2.45-3.82 6-6.02 9.75-6.02s7.3 2.2 9.74 6.02c1.06 1.65 1.06 4.34 0 6-2.44 3.82-5.99 6.02-9.74 6.02Zm0-16.54c-3.23 0-6.32 1.94-8.48 5.33-.75 1.17-.75 3.21 0 4.38 2.16 3.39 5.25 5.33 8.48 5.33 3.23 0 6.32-1.94 8.48-5.33.75-1.17.75-3.21 0-4.38-2.16-3.39-5.25-5.33-8.48-5.33Z" fill="currentColor"/></symbol><symbol viewBox="0 0 24 24" fill="none" id="eye-slash" xmlns="http://www.w3.org/2000/svg"><path d="M9.47 15.28c-.19 0-.38-.07-.53-.22A4.305 4.305 0 0 1 7.67 12c0-2.39 1.94-4.33 4.33-4.33 1.15 0 2.24.45 3.06 1.27a.75.75 0 0 1 0 1.06L10 15.06c-.15.15-.34.22-.53.22ZM12 9.17a2.834 2.834 0 0 0-2.46 4.23l3.86-3.86c-.42-.24-.9-.37-1.4-.37Z" fill="currentColor"/><path d="M5.6 18.51c-.17 0-.35-.06-.49-.18-1.07-.91-2.03-2.03-2.85-3.33-1.06-1.65-1.06-4.34 0-6C4.7 5.18 8.25 2.98 12 2.98c2.2 0 4.37.76 6.27 2.19a.75.75 0 0 1-.9 1.2c-1.64-1.24-3.5-1.89-5.37-1.89-3.23 0-6.32 1.94-8.48 5.33-.75 1.17-.75 3.21 0 4.38s1.61 2.18 2.56 3c.31.27.35.74.08 1.06-.14.17-.35.26-.56.26ZM12 21.02c-1.33 0-2.63-.27-3.88-.8a.75.75 0 0 1-.4-.98c.16-.38.6-.56.98-.4 1.06.45 2.17.68 3.29.68 3.23 0 6.32-1.94 8.48-5.33.75-1.17.75-3.21 0-4.38-.31-.49-.65-.96-1.01-1.4a.76.76 0 0 1 .11-1.06.75.75 0 0 1 1.06.11c.39.48.77 1 1.11 1.54 1.06 1.65 1.06 4.34 0 6-2.44 3.82-5.99 6.02-9.74 6.02Z" fill="currentColor"/><path d="M12.69 16.27c-.35 0-.67-.25-.74-.61-.08-.41.19-.8.6-.87 1.1-.2 2.02-1.12 2.22-2.22.08-.41.47-.67.88-.6.41.08.68.47.6.88-.32 1.73-1.7 3.1-3.42 3.42-.05-.01-.09 0-.14 0ZM2 22.75c-.19 0-.38-.07-.53-.22a.754.754 0 0 1 0-1.06L8.94 14c.29-.29.77-.29 1.06 0 .29.29.29.77 0 1.06l-7.47 7.47c-.15.15-.34.22-.53.22ZM14.53 10.22c-.19 0-.38-.07-.53-.22a.754.754 0 0 1 0-1.06l7.47-7.47c.29-.29.77-.29 1.06 0 .29.29.29.77 0 1.06L15.06 10c-.15.15-.34.22-.53.22Z" fill="currentColor"/></symbol><symbol viewBox="0 0 24 24" fill="currentColor" id="github" xmlns="http://www.w3.org/2000/svg"><path d="M12 .297c-6.627 0-12 5.373-12 12 0 5.292 3.438 9.777 8.207 11.387.6.113.793-.26.793-.577v-2.17c-3.338.724-4.033-1.416-4.033-1.416-.546-1.387-1.333-1.756-1.333-1.756-1.089-.745.084-.729.084-.729 1.205.085 1.84 1.236 1.84 1.236 1.07 1.835 2.809 1.305 3.495.997.108-.776.42-1.305.763-1.605-2.665-.304-5.466-1.332-5.466-5.931 0-1.31.468-2.381 1.236-3.221-.124-.303-.535-1.523.117-3.176 0 0 1.008-.322 3.3 1.23a11.514 11.514 0 0 1 3.003-.403c1.018.005 2.045.137 3.003.403 2.29-1.552 3.296-1.23 3.296-1.23.653 1.653.242 2.873.119 3.176.77.84 1.235 1.911 1.235 3.221 0 4.61-2.804 5.625-5.475 5.921.431.372.815 1.102.815 2.222v3.293c0 .32.192.694.8.576C20.565 22.07 24 17.586 24 12.297c0-6.627-5.373-12-12-12z"/></symbol><symbol viewBox="0 0 24 24" fill="currentColor" id="home" xmlns="http://www.w3.org/2000/svg"><path d="M17.6 22.56H6.4c-1.82 0-3.48-1.4-3.78-3.2L1.29 11.4c-.21-1.24.39-2.83 1.38-3.62L9.6 2.23c1.34-1.08 3.45-1.07 4.8.01l6.93 5.54c.98.79 1.58 2.38 1.38 3.62l-1.33 7.96c-.3 1.77-1.99 3.2-3.78 3.2ZM11.99 2.94c-.53 0-1.06.16-1.45.47L3.61 8.96c-.57.46-.96 1.48-.84 2.2l1.33 7.96c.18 1.05 1.23 1.94 2.3 1.94h11.2c1.07 0 2.12-.89 2.3-1.95l1.33-7.96c.12-.72-.28-1.75-.84-2.2l-6.93-5.54c-.4-.31-.93-.47-1.47-.47Z"/><path d="M12 16.25c-1.79 0-3.25-1.46-3.25-3.25S10.21 9.75 12 9.75s3.25 1.46 3.25 3.25-1.46 3.25-3.25 3.25Zm0-5c-.96 0-1.75.79-1.75 1.75s.79 1.75 1.75 1.75 1.75-.79 1.75-1.75-.79-1.75-1.75-1.75Z"/></symbol><symbol viewBox="0 0 100 100" preserveAspectRatio="xMidYMid" id="loading" xmlns="http://www.w3.org/2000/svg"><circle cx="50" cy="50" fill="transparent" stroke="currentColor" stroke-width="6" r="40" stroke-dasharray="188.49555921538757 64.83185307179586"/></symbol><symbol viewBox="0 0 36 36" fill="none" stroke="currentColor" stroke-width="2.5" stroke-linecap="round" stroke-linejoin="round" id="logo" xmlns="http://www.w3.org/2000/svg"><rect x="12" y="2" width="12" height="12" rx="2" ry="2"/><path d="M18 14v4M18 18c-4.5 0-9 0-9 5M18 18c4.5 0 9 0 9 5"/><rect x="3" y="23" width="12" height="12" rx="2" ry="2"/><rect x="21" y="23" width="12" height="12" rx="2" ry="2"/></symbol><symbol viewBox="0 0 36 36" fill="none" stroke="currentColor" stroke-width="2.5" stroke-linecap="round" stroke-linejoin="round" id="logo-horizontal" xmlns="http://www.w3.org/2000/svg"><g transform="rotate(-90 18 18)"><rect x="12" y="2" width="12" height="12" rx="2" ry="2"/><path d="M18 14v4M18 18c-4.5 0-9 0-9 5M18 18c4.5 0 9 0 9 5"/><rect x="3" y="23" width="12" height="12" rx="2" ry="2"/><rect x="21" y="23" width="12" height="12" rx="2" ry="2"/></g></symbol><symbol fill="none" viewBox="0 0 24 24" id="map" xmlns="http://www.w3.org/2000/svg"><path d="M21 10c0 7-9 13-9 13s-9-6-9-13a9 9 0 1 1 18 0Z" stroke="currentColor" stroke-width="2" stroke-linecap="round" stroke-linejoin="round"/><path d="M12 13a3 3 0 1 0 0-6 3 3 0 0 0 0 6Z" stroke="currentColor" stroke-width="2" stroke-linecap="round" stroke-linejoin="round"/></symbol><symbol viewBox="0 0 16 16" fill="currentColor" id="moon-stars" xmlns="http://www.w3.org/2000/svg"><path d="M6 .278a.768.768 0 0 1 .08.858 7.208 7.208 0 0 0-.878 3.46c0 4.021 3.278 7.277 7.318 7.277.527 0 1.04-.055 1.533-.16a.787.787 0 0 1 .81.316.733.733 0 0 1-.031.893A8.349 8.349 0 0 1 8.344 16C3.734 16 0 12.286 0 7.71 0 4.266 2.114 1.312 5.124.06A.752.752 0 0 1 6 .278z" color="currentColor"/><path d="M10.794 3.148a.217.217 0 0 1 .412 0l.387 1.162c.173.518.579.924 1.097 1.097l1.162.387a.217.217 0 0 1 0 .412l-1.162.387a1.734 1.734 0 0 0-1.097 1.097l-.387 1.162a.217.217 0 0 1-.412 0l-.387-1.162A1.734 1.734 0 0 0 9.31 6.593l-1.162-.387a.217.217 0 0 1 0-.412l1.162-.387a1.734 1.734 0 0 0 1.097-1.097l.387-1.162zM13.863.099a.145.145 0 0 1 .274 0l.258.774c.115.346.386.617.732.732l.774.258a.145.145 0 0 1 0 .274l-.774.258a1.156 1.156 0 0 0-.732.732l-.258.774a.145.145 0 0 1-.274 0l-.258-.774a1.156 1.156 0 0 0-.732-.732l-.774-.258a.145.145 0 0 1 0-.274l.774-.258c.346-.115.617-.386.732-.732L13.863.1z" color="currentColor"/></symbol><symbol viewBox="0 0 24 24" fill="none" id="package" xmlns="http://www.w3.org/2000/svg"><path d="M12 13.3c-.13 0-.26-.03-.38-.1L2.79 8.09a.752.752 0 0 1-.27-1.03.75.75 0 0 1 1.03-.27L12 11.68l8.4-4.86a.76.76 0 0 1 1.03.27c.21.36.08.82-.27 1.03l-8.77 5.08a.94.94 0 0 1-.39.1Z" fill="currentColor"/><path d="M12 22.36c-.41 0-.75-.34-.75-.75v-9.07c0-.41.34-.75.75-.75s.75.34.75.75v9.07c0 .41-.34.75-.75.75Z" fill="currentColor"/><path d="M12 22.75c-.88 0-1.75-.19-2.44-.57l-5.34-2.97c-1.45-.8-2.58-2.73-2.58-4.39V9.17c0-1.66 1.13-3.58 2.58-4.39l5.34-2.96c1.37-.76 3.51-.76 4.88 0l5.34 2.97c1.45.8 2.58 2.73 2.58 4.39v5.65c0 1.66-1.13 3.58-2.58 4.39l-5.34 2.96c-.69.38-1.56.57-2.44.57Zm0-20c-.63 0-1.25.13-1.71.38L4.95 6.1c-.96.54-1.81 1.97-1.81 3.08v5.65c0 1.1.85 2.54 1.81 3.08l5.34 2.97c.91.51 2.51.51 3.42 0l5.34-2.97c.96-.54 1.81-1.97 1.81-3.08V9.18c0-1.1-.85-2.54-1.81-3.08l-5.34-2.97c-.46-.25-1.08-.38-1.71-.38Z" fill="currentColor"/><path d="M17.001 13.99c-.41 0-.75-.34-.75-.75v-3.22l-9.12-5.26a.742.742 0 0 1-.27-1.02.74.74 0 0 1 1.02-.27l9.49 5.48c.23.13.38.38.38.65v3.66c0 .39-.34.73-.75.73Z" fill="currentColor"/></symbol><symbol viewBox="0 0 24 24" fill="none" id="refresh" xmlns="http://www.w3.org/2000/svg"><path d="M12 22.75c-5.2 0-9.42-4.23-9.42-9.42C2.58 8.14 6.8 3.9 12 3.9c1.07 0 2.11.15 3.11.46.4.12.62.54.5.94a.75.75 0 0 1-.94.5c-.85-.26-1.75-.4-2.67-.4-4.37 0-7.92 3.55-7.92 7.92s3.55 7.92 7.92 7.92a7.925 7.925 0 0 0 6.59-12.32.746.746 0 0 1 .21-1.04c.34-.23.81-.14 1.04.21a9.366 9.366 0 0 1 1.59 5.24c-.01 5.19-4.23 9.42-9.43 9.42Z" fill="currentColor"/><path d="M16.13 6.07c-.21 0-.42-.09-.57-.26l-2.89-3.32a.756.756 0 0 1 .07-1.06c.31-.27.79-.24 1.06.07l2.89 3.32c.27.31.24.79-.07 1.06-.13.13-.31.19-.49.19Z" fill="currentColor"/><path d="M12.76 8.53c-.23 0-.46-.11-.61-.31-.24-.33-.17-.8.16-1.05l3.37-2.46a.752.752 0 0 1 .89 1.21L13.2 8.39a.7.7 0 0 1-.44.14Z" fill="currentColor"/></symbol><symbol viewBox="0 0 24 24" fill="none" stroke="currentColor" stroke-width="2" stroke-linecap="round" stroke-linejoin="round" id="repeat" xmlns="http://www.w3.org/2000/svg"><path d="m17 1 4 4-4 4"/><path d="M3 11V9a4 4 0 0 1 4-4h14M7 23l-4-4 4-4"/><path d="M21 13v2a4 4 0 0 1-4 4H3"/></symbol><symbol viewBox="0 0 16 16" fill="currentColor" id="sun" xmlns="http://www.w3.org/2000/svg"><path d="M8 12a4 4 0 1 0 0-8 4 4 0 0 0 0 8zM8 0a.5.5 0 0 1 .5.5v2a.5.5 0 0 1-1 0v-2A.5.5 0 0 1 8 0zm0 13a.5.5 0 0 1 .5.5v2a.5.5 0 0 1-1 0v-2A.5.5 0 0 1 8 13zm8-5a.5.5 0 0 1-.5.5h-2a.5.5 0 0 1 0-1h2a.5.5 0 0 1 .5.5zM3 8a.5.5 0 0 1-.5.5h-2a.5.5 0 0 1 0-1h2A.5.5 0 0 1 3 8zm10.657-5.657a.5.5 0 0 1 0 .707l-1.414 1.415a.5.5 0 1 1-.707-.708l1.414-1.414a.5.5 0 0 1 .707 0zm-9.193 9.193a.5.5 0 0 1 0 .707L3.05 13.657a.5.5 0 0 1-.707-.707l1.414-1.414a.5.5 0 0 1 .707 0zm9.193 2.121a.5.5 0 0 1-.707 0l-1.414-1.414a.5.5 0 0 1 .707-.707l1.414 1.414a.5.5 0 0 1 0 .707zM4.464 4.465a.5.5 0 0 1-.707 0L2.343 3.05a.5.5 0 1 1 .707-.707l1.414 1.414a.5.5 0 0 1 0 .708z" color="currentColor"/></symbol><symbol viewBox="0 0 24 24" fill="none" stroke="currentColor" stroke-width="2" stroke-linecap="round" stroke-linejoin="round" id="target" xmlns="http://www.w3.org/2000/svg"><circle cx="12" cy="12" r="10"/><path d="M12 2v4M12 18v4M2 12h4M18 12h4"/><circle cx="12" cy="12" r="2"/></symbol><symbol viewBox="0 0 24 24" id="vertical-split" xmlns="http://www.w3.org/2000/svg"><path d="M15 22.75H9c-5.43 0-7.75-2.32-7.75-7.75V9c0-5.43 2.32-7.75 7.75-7.75h6c5.43 0 7.75 2.32 7.75 7.75v6c0 5.43-2.32 7.75-7.75 7.75Zm-6-20C4.39 2.75 2.75 4.39 2.75 9v6c0 4.61 1.64 6.25 6.25 6.25h6c4.61 0 6.25-1.64 6.25-6.25V9c0-4.61-1.64-6.25-6.25-6.25H9Z" fill="currentColor"/><path d="M9 22.75c-.41 0-.75-.34-.75-.75V2c0-.41.34-.75.75-.75s.75.34.75.75v20c0 .41-.34.75-.75.75Z" fill="currentColor"/></symbol><symbol viewBox="0 0 24 24" fill="none" id="zoom-in" xmlns="http://www.w3.org/2000/svg"><path d="M14.2 12.45h-5c-.41 0-.75-.34-.75-.75s.34-.75.75-.75h5c.41 0 .75.34.75.75s-.34.75-.75.75Z" fill="currentColor"/><path d="M11.7 14.95c-.41 0-.75-.34-.75-.75v-5c0-.41.34-.75.75-.75s.75.34.75.75v5c0 .41-.34.75-.75.75Z" fill="currentColor"/><path d="M11.5 21.75c-5.65 0-10.25-4.6-10.25-10.25S5.85 1.25 11.5 1.25s10.25 4.6 10.25 10.25-4.6 10.25-10.25 10.25Zm0-19c-4.83 0-8.75 3.93-8.75 8.75s3.92 8.75 8.75 8.75 8.75-3.93 8.75-8.75-3.92-8.75-8.75-8.75ZM22 22.75c-.19 0-.38-.07-.53-.22l-2-2a.754.754 0 0 1 0-1.06c.29-.29.77-.29 1.06 0l2 2c.29.29.29.77 0 1.06-.15.15-.34.22-.53.22Z" fill="currentColor"/></symbol><symbol viewBox="0 0 24 24" fill="none" id="zoom-out" xmlns="http://www.w3.org/2000/svg"><path d="M14 12.45H9c-.41 0-.75-.34-.75-.75s.34-.75.75-.75h5c.41 0 .75.34.75.75s-.34.75-.75.75Z" fill="currentColor"/><path d="M11.5 21.75c-5.65 0-10.25-4.6-10.25-10.25S5.85 1.25 11.5 1.25s10.25 4.6 10.25 10.25-4.6 10.25-10.25 10.25Zm0-19c-4.83 0-8.75 3.93-8.75 8.75s3.92 8.75 8.75 8.75 8.75-3.93 8.75-8.75-3.92-8.75-8.75-8.75ZM22 22.75c-.19 0-.38-.07-.53-.22l-2-2a.754.754 0 0 1 0-1.06c.29-.29.77-.29 1.06 0l2 2c.29.29.29.77 0 1.06-.15.15-.34.22-.53.22Z" fill="currentColor"/></symbol></svg>