<svg viewBox="0 0 24 24" fill="none" xmlns="http://www.w3.org/2000/svg">
    <path
        d="M10.248 20.5C9.83805 20.5 9.49805 20.16 9.49805 19.75V14.5H4.24805C3.83805 14.5 3.49805 14.16 3.49805 13.75C3.49805 13.34 3.83805 13 4.24805 13H10.248C10.658 13 10.998 13.34 10.998 13.75V19.75C10.998 20.16 10.658 20.5 10.248 20.5Z"
        fill="currentColor" />
    <path
        d="M2.7475 21.9999C2.5575 21.9999 2.3675 21.9299 2.2175 21.7799C1.9275 21.4899 1.9275 21.0099 2.2175 20.7199L9.7175 13.2199C10.0075 12.9299 10.4875 12.9299 10.7775 13.2199C11.0675 13.5099 11.0675 13.9899 10.7775 14.2799L3.2775 21.7799C3.1275 21.9299 2.9375 21.9999 2.7475 21.9999Z"
        fill="currentColor" />
    <path
        d="M18.75 11.9976H12.75C12.34 11.9976 12 11.6576 12 11.2476V5.24756C12 4.83756 12.34 4.49756 12.75 4.49756C13.16 4.49756 13.5 4.83756 13.5 5.24756V10.4976H18.75C19.16 10.4976 19.5 10.8376 19.5 11.2476C19.5 11.6576 19.16 11.9976 18.75 11.9976Z"
        fill="currentColor" />
    <path
        d="M12.7495 11.9975C12.5595 11.9975 12.3695 11.9275 12.2195 11.7775C11.9295 11.4875 11.9295 11.0075 12.2195 10.7175L19.7195 3.2175C20.0095 2.9275 20.4895 2.9275 20.7795 3.2175C21.0695 3.5075 21.0695 3.9875 20.7795 4.2775L13.2795 11.7775C13.1295 11.9275 12.9395 11.9975 12.7495 11.9975Z"
        fill="currentColor" />
</svg>